<?xml version="1.0" encoding="UTF-8"?>
<svg width="450px" height="162px" viewBox="0 0 450 162" version="1.1" xmlns="http://www.w3.org/2000/svg" xmlns:xlink="http://www.w3.org/1999/xlink">
    <!-- Generator: Sketch 51.2 (57519) - http://www.bohemiancoding.com/sketch -->
    <title>Logo</title>
    <desc>Created with Sketch.</desc>
    <defs>
        <polygon id="path-1" points="0.5278 0.214 24.5198119 0.214 24.5198119 27.7238 0.5278 27.7238"></polygon>
    </defs>
    <g id="Board" stroke="none" stroke-width="1" fill="none" fill-rule="evenodd">
        <g id="Start" transform="translate(-73.000000, -341.000000)">
            <g id="Logo" transform="translate(74.000000, 340.000000)">
                <polygon id="Fill-1" fill="#000000" points="223.798 92 179 162.14 268.596 162.14"></polygon>
                <g id="Group-28">
                    <path d="M0.5002,116.286 L446.9572,22.877" id="Stroke-1" stroke="#000000" stroke-width="3" stroke-linecap="round" stroke-linejoin="round"></path>
                    <path d="M20.7029,93.6531 C20.3349,91.8961 18.7149,91.1991 16.9579,91.5661 L11.7629,92.6531 L12.9049,98.1151 L18.0999,97.0281 C19.8569,96.6601 21.0629,95.3721 20.7029,93.6531 Z M9.3249,113.7751 L3.9939,88.2981 L16.7519,85.6291 C22.4809,84.4301 26.4209,87.6321 27.3879,92.2551 C28.3469,96.8381 26.0219,101.3511 20.2919,102.5491 L14.1039,103.8441 L15.8939,112.4011 L9.3249,113.7751 Z" id="Fill-3" fill="#000000"></path>
                    <polygon id="Fill-5" fill="#000000" points="64.4055 102.2508 62.2635 92.0148 51.6835 94.2288 53.8245 104.4648 47.2545 105.8398 41.9245 80.3618 48.4945 78.9868 50.4845 88.4988 61.0645 86.2848 59.0745 76.7738 65.6445 75.3988 70.9745 100.8768"></polygon>
                    <polygon id="Fill-7" fill="#000000" points="95.8811 95.6658 93.7311 85.3908 80.8861 72.2098 88.2971 70.6598 95.8011 78.8978 99.2981 68.3578 106.7451 66.7998 100.3011 84.0168 102.4501 94.2908"></polygon>
                    <path d="M123.97,86.0418 L126.375,80.1948 C128.592,81.6458 131.738,82.5818 135.253,81.8468 C137.468,81.3838 138.683,80.3318 138.42,79.0708 C137.716,75.7098 123.899,81.5108 121.845,71.6948 C120.95,67.4168 123.742,62.8458 130.274,61.4798 C134.361,60.6238 138.168,61.1038 141.367,62.8658 L138.808,68.5438 C136.294,67.1958 133.322,66.9008 130.801,67.4288 C128.89,67.8278 128.186,68.6538 128.418,69.7608 C129.073,72.8938 142.978,67.5118 144.96,76.9848 C146.031,82.1038 142.96,86.2938 136.123,87.7248 C130.967,88.8038 127.033,87.9118 123.97,86.0418" id="Fill-9" fill="#000000"></path>
                    <polygon id="Fill-11" fill="#000000" points="163.0715 81.6082 157.7405 56.1302 164.3115 54.7562 169.6415 80.2332"></polygon>
                    <path d="M183.574,63.7254 C182.114,55.9924 186.938,49.5834 194.666,47.9664 C200.816,46.6794 204.867,49.4604 207.204,52.4394 L202.119,56.3344 C200.855,54.4864 198.326,53.2614 195.881,53.7724 C191.718,54.6434 189.44,58.4294 190.319,62.6304 C191.19,66.7944 194.803,69.3874 198.966,68.5164 C201.41,68.0054 203.236,65.8694 203.653,63.6684 L209.866,65.1594 C208.846,68.9604 206.023,73.5414 199.058,74.5174 C191.796,75.5344 184.934,70.9314 183.574,63.7254" id="Fill-13" fill="#000000"></path>
                    <path d="M224.8122,64.9427 L227.2172,59.0967 C229.4342,60.5467 232.5812,61.4837 236.0942,60.7487 C238.3102,60.2847 239.5262,59.2337 239.2622,57.9727 C238.5592,54.6107 224.7422,60.4127 222.6872,50.5967 C221.7922,46.3177 224.5832,41.7477 231.1162,40.3807 C235.2032,39.5257 239.0112,40.0047 242.2102,41.7667 L239.6502,47.4457 C237.1352,46.0977 234.1652,45.8027 231.6422,46.3297 C229.7332,46.7297 229.0282,47.5557 229.2592,48.6627 C229.9152,51.7947 243.8202,46.4137 245.8012,55.8867 C246.8732,61.0047 243.8022,65.1957 236.9662,66.6257 C231.8092,67.7047 227.8752,66.8137 224.8122,64.9427" id="Fill-15" fill="#000000"></path>
                    <path d="M279.0212,50.0135 C278.4772,47.4155 276.1712,45.3465 272.6192,46.0895 L264.4452,47.8005 L266.5542,57.8835 L274.7292,56.1735 C278.0892,55.4705 279.6672,53.1075 279.0212,50.0135 Z M276.0712,38.3905 C275.5282,35.7925 273.3622,34.0135 270.0772,34.7005 L262.0552,36.3795 L264.0292,45.8135 L272.0502,44.1355 C275.3352,43.4485 276.6232,41.0255 276.0712,38.3905 Z M264.7922,60.3255 L259.4622,34.8485 L269.9282,32.6585 C274.2062,31.7635 277.4752,33.6715 278.3152,37.6815 C278.9862,40.8895 277.2642,43.5225 275.0692,44.4615 C277.8692,44.3135 280.7122,46.6695 281.3442,49.6865 C282.2312,53.9265 280.0342,57.1375 275.4882,58.0885 L264.7922,60.3255 Z" id="Fill-17" fill="#000000"></path>
                    <path d="M320.4968,35.3948 C319.1458,28.9388 314.1828,25.0348 308.0708,26.3128 C301.9228,27.5998 298.9788,33.1588 300.3298,39.6138 C301.6728,46.0318 306.6048,49.9818 312.7548,48.6958 C318.8658,47.4168 321.8398,41.8118 320.4968,35.3948 M298.0368,40.0938 C296.4778,32.6458 300.1688,25.8928 307.6558,24.3268 C315.1038,22.7688 321.2298,27.4668 322.7888,34.9158 C324.3478,42.3638 320.6178,49.1238 313.1698,50.6828 C305.6838,52.2488 299.5958,47.5428 298.0368,40.0938" id="Fill-19" fill="#000000"></path>
                    <path d="M347.0798,18.949 L344.1608,35.109 L356.1918,32.592 L347.0798,18.949 Z M361.1658,40.162 L357.3338,34.426 L343.8508,37.246 L342.6408,44.038 L340.1198,44.566 L345.2168,16.907 L347.9288,16.339 L363.6858,39.635 L361.1658,40.162 Z" id="Fill-21" fill="#000000"></path>
                    <path d="M391.9997,14.8934 C391.3287,11.6854 388.6037,9.9024 385.2047,10.6134 L378.0617,12.1084 L380.3557,23.0704 L387.4977,21.5764 C390.8967,20.8644 392.6717,18.1014 391.9997,14.8934 Z M395.7347,32.9294 L386.3857,23.8814 L380.7707,25.0564 L382.9777,35.5994 L380.7997,36.0544 L375.4697,10.5774 L384.9797,8.5874 C389.3727,7.6684 393.3177,9.7534 394.2927,14.4144 C395.2597,19.0354 392.5477,22.2744 388.7607,23.2264 L398.3697,32.3784 L395.7347,32.9294 Z" id="Fill-23" fill="#000000"></path>
                    <g id="Group-27" transform="translate(411.000000, 0.786000)">
                        <mask id="mask-2" fill="white">
                            <use xlink:href="#path-1"></use>
                        </mask>
                        <g id="Clip-26"></g>
                        <path d="M21.9128,11.0888 C20.6668,5.1308 15.8398,1.1168 9.0788,2.5308 L3.1208,3.7778 L7.6198,25.2818 L13.5778,24.0358 C20.3008,22.6298 23.1598,17.0478 21.9128,11.0888 Z M5.8578,27.7238 L0.5278,2.2468 L8.6638,0.5448 C16.5698,-1.1092 22.7418,3.6198 24.2048,10.6098 C25.6838,17.6758 21.9008,24.3678 13.9938,26.0218 L5.8578,27.7238 Z" id="Fill-25" fill="#000000" mask="url(#mask-2)"></path>
                    </g>
                </g>
            </g>
        </g>
    </g>
</svg>